<svg width="41" height="66" viewBox="0 0 41 66" fill="none" xmlns="http://www.w3.org/2000/svg">
<g filter="url(#filter0_d_35_45)">
<path d="M36 20.0002C23.8891 6.69641 17.1037 7.16334 4.99999 21.0001C4.91083 -5.25373 35.5038 -6.02498 36 20.0002Z" fill="white"/>
<path d="M28 48C27.6327 50.939 27.6518 50.5413 28 56.5001C19.7145 48.3803 9.04183 42.5201 5.5 32.5C4.61632 30 4.99999 26.3998 4.99999 23.5001C12.9207 32.7342 17.9697 39.6549 28 48Z" fill="white"/>
<path d="M32 38.5001C35.1409 33.6317 35.8637 30.0202 36 22.5002C32.5 26.5 31 27.9999 26.5 31C29.1863 33.2218 29.6037 35.2889 32 38.5001Z" fill="white"/>
<path d="M36 20.0002C23.8891 6.69641 17.1037 7.16334 4.99999 21.0001C4.91083 -5.25373 35.5038 -6.02498 36 20.0002Z" stroke="white"/>
<path d="M28 48C27.6327 50.939 27.6518 50.5413 28 56.5001C19.7145 48.3803 9.04183 42.5201 5.5 32.5C4.61632 30 4.99999 26.3998 4.99999 23.5001C12.9207 32.7342 17.9697 39.6549 28 48Z" stroke="white"/>
<path d="M32 38.5001C35.1409 33.6317 35.8637 30.0202 36 22.5002C32.5 26.5 31 27.9999 26.5 31C29.1863 33.2218 29.6037 35.2889 32 38.5001Z" stroke="white"/>
</g>
<defs>
<filter id="filter0_d_35_45" x="0.417114" y="0.389893" width="40.1082" height="65.3735" filterUnits="userSpaceOnUse" color-interpolation-filters="sRGB">
<feFlood flood-opacity="0" result="BackgroundImageFix"/>
<feColorMatrix in="SourceAlpha" type="matrix" values="0 0 0 0 0 0 0 0 0 0 0 0 0 0 0 0 0 0 127 0" result="hardAlpha"/>
<feOffset dy="4"/>
<feGaussianBlur stdDeviation="2"/>
<feComposite in2="hardAlpha" operator="out"/>
<feColorMatrix type="matrix" values="0 0 0 0 0 0 0 0 0 0 0 0 0 0 0 0 0 0 0.25 0"/>
<feBlend mode="normal" in2="BackgroundImageFix" result="effect1_dropShadow_35_45"/>
<feBlend mode="normal" in="SourceGraphic" in2="effect1_dropShadow_35_45" result="shape"/>
</filter>
</defs>
</svg>
